<svg width="32" height="32" viewBox="0 0 32 32" fill="none" xmlns="http://www.w3.org/2000/svg">
<circle cx="17.1047" cy="16" r="12" fill="url(#paint0_linear_788_4390)"/>
<path d="M11.2367 22.8662L10.7728 20.2381C10.7728 20.2381 10.4745 18.5487 7.64764 17.8863C4.82077 17.224 2.23697 19.0351 2.23697 19.0351C2.08238 19.2559 2.14865 19.6313 2.5241 19.5651C2.5241 19.5651 5.17269 19.3805 6.51042 20.2163C6.60797 20.2773 6.71145 20.3517 6.81469 20.4319C7.34219 20.8417 7.13424 21.5571 7.25037 22.2149C7.28351 22.4026 7.31664 22.5903 7.65894 22.3363C8.00124 22.0823 8.68585 21.5744 9.6907 21.7841C10.6956 21.9938 11.2367 22.8662 11.2367 22.8662Z" fill="#B090B9"/>
<mask id="mask0_788_4390" style="mask-type:alpha" maskUnits="userSpaceOnUse" x="5" y="4" width="25" height="24">
<circle cx="17.1047" cy="16" r="12" fill="url(#paint1_linear_788_4390)"/>
</mask>
<g mask="url(#mask0_788_4390)">
<path d="M22.3315 9.68062C22.3315 9.68062 15.3528 10.719 13.1333 11.3044C9.90899 11.68 9.08094 13.5683 9.37918 15.2578C9.88737 19.233 11.8534 28.1771 11.8534 28.1771C12.0854 29.4912 13.1897 30.2641 14.316 30.0652C15.0669 29.9327 23.9227 28.5629 26.1753 28.1652C27.9774 27.8471 29.256 25.8793 28.1738 24.1347C27.0915 22.39 21.5151 22.6002 20.6317 21.9819C19.3066 21.0544 19.2072 20.4912 20.1346 19.1661C21.0159 17.907 26.6494 15.4997 26.086 12.3085C25.6354 9.75551 23.6455 9.44869 22.3315 9.68062Z" fill="white"/>
<path d="M14.7574 23.7932C14.7574 23.7932 16.7323 22.579 17.794 23.4507C18.9582 24.4066 17.8825 26.145 17.8825 26.145" stroke="#F8B062" stroke-linecap="round"/>
<path d="M13.6244 13.8169C13.7073 13.3602 14.3137 13.2532 14.548 13.6539L14.8513 14.1727C14.925 14.2987 15.05 14.3862 15.1936 14.4123L15.785 14.5197C16.2416 14.6026 16.3487 15.2089 15.948 15.4432L15.4292 15.7466C15.3032 15.8203 15.2157 15.9453 15.1896 16.0889L15.0822 16.6802C14.9993 17.1369 14.3929 17.2439 14.1586 16.8433L13.8552 16.3244C13.7816 16.1985 13.6566 16.111 13.513 16.0849L12.9216 15.9775C12.465 15.8945 12.3579 15.2882 12.7586 15.0539L13.2774 14.7505C13.4034 14.6769 13.4909 14.5518 13.517 14.4083L13.6244 13.8169Z" fill="#7FBEE5"/>
</g>
<defs>
<linearGradient id="paint0_linear_788_4390" x1="11.6047" y1="7" x2="20.1047" y2="26" gradientUnits="userSpaceOnUse">
<stop stop-color="#FFDE8A"/>
<stop offset="1" stop-color="#FFC738"/>
</linearGradient>
<linearGradient id="paint1_linear_788_4390" x1="11.6047" y1="7" x2="20.1047" y2="26" gradientUnits="userSpaceOnUse">
<stop stop-color="#FFDE8A"/>
<stop offset="1" stop-color="#FFC738"/>
</linearGradient>
</defs>
</svg>
