<?xml version="1.0" standalone="no"?><!DOCTYPE svg PUBLIC "-//W3C//DTD SVG 1.1//EN" "http://www.w3.org/Graphics/SVG/1.1/DTD/svg11.dtd"><svg t="1755959308312" class="icon" viewBox="0 0 1024 1024" version="1.1" xmlns="http://www.w3.org/2000/svg" p-id="2301" xmlns:xlink="http://www.w3.org/1999/xlink" width="200" height="200"><path d="M256 85.333333h85.333333v85.333334H256V85.333333zM426.666667 469.333333h170.666666v85.333334h-170.666666v-85.333334zM597.333333 640h-170.666666v85.333333h170.666666v-85.333333z" p-id="2302" fill="#707070"></path><path d="M682.666667 170.666667h-85.333334v85.333333h-170.666666V170.666667H341.333333v85.333333H256v128H170.666667V298.666667H85.333333v85.333333h85.333334v85.333333h85.333333v85.333334H85.333333v85.333333h170.666667v85.333333H170.666667v85.333334H85.333333v85.333333h85.333334v-85.333333h85.333333v128h512v-128h85.333333v85.333333h85.333334v-85.333333h-85.333334v-85.333334h-85.333333v-85.333333h170.666667v-85.333333h-170.666667v-85.333334h85.333333V384h85.333334V298.666667h-85.333334v85.333333h-85.333333V256h-85.333333V170.666667zM341.333333 853.333333V341.333333h341.333334v512H341.333333z" p-id="2303" fill="#707070"></path><path d="M682.666667 170.666667V85.333333h85.333333v85.333334h-85.333333z" p-id="2304" fill="#707070"></path></svg>