<?xml version="1.0" standalone="no"?><!DOCTYPE svg PUBLIC "-//W3C//DTD SVG 1.1//EN" "http://www.w3.org/Graphics/SVG/1.1/DTD/svg11.dtd"><svg t="1755956645821" class="icon" viewBox="0 0 1024 1024" version="1.1" xmlns="http://www.w3.org/2000/svg" p-id="6736" xmlns:xlink="http://www.w3.org/1999/xlink" width="200" height="200"><path d="M831.636714 301.145228V167.332647v-0.144464c0.084979-21.032365 12.950838-38.01122 33.983203-37.93049 21.138589 0.084979 28.786722 16.944863 28.786722 38.074954V397.320498c0.021245 16.723917-14.306257 29.300846-31.034423 29.279602H633.987718c-21.130091 0-38.274656-12.874357-38.334141-34.0002v-0.097726c0-21.05361 17.072332-29.65351 38.130191-29.65351H788.182573c-52.916581-91.378191-162.977461-169.979751-276.182573-169.979751-168.981245 0-318.672199 148.675452-318.672199 317.635452 0 168.955751 149.741942 319.819419 318.723187 319.819419 142.569693 0 271.444979-114.475552 305.411186-246.422838h0.029743c0-21.117344 15.942108-36.923485 37.063701-36.923485 21.121593 0 32.27512 20.055104 32.275121 41.172448-35.410855 174.547386-189.750174 305.925311-374.779751 305.925311-211.224432 0-382.457627-171.207701-382.457627-382.406639 0-211.194689 171.233195-382.406639 382.457627-382.406639 125.063967 0 249.805012 79.081693 319.585726 171.887535z m-30.018921 95.690888L788.182573 364.063867c-2.689593-3.577627 2.855303 2.268946 0-1.219452l75.304365-21.227817c-28.485046-0.038241-54.102041 23.598739-54.059552 55.7039l22.209328-96.17527c19.961627 22.060614 15.389743-6.262971 30.082655 19.116083l20.904897 43.806805v32.768h-81.006473z" fill="#ffffff" p-id="6737"></path></svg>